<svg width="379" height="211" viewBox="0 0 379 211" fill="none" xmlns="http://www.w3.org/2000/svg">
<rect width="108" height="167" rx="8" fill="#21759B"/>
<path d="M125.808 132V42.4H136.048V132H125.808ZM164.873 132C161.801 132 158.942 131.232 156.297 129.696C153.737 128.16 151.689 126.069 150.153 123.424C148.702 120.779 147.977 117.792 147.977 114.464V107.808C147.977 103.797 148.958 100.427 150.921 97.696C152.969 94.9653 155.486 93.0453 158.473 91.936L174.345 86.048V80.032C174.345 77.984 173.705 76.32 172.425 75.04C171.23 73.6747 169.652 72.992 167.689 72.992H153.225V65.44H168.585C173.278 65.44 176.99 66.848 179.721 69.664C182.537 72.3947 183.945 76.1493 183.945 80.928V132H164.873ZM174.345 124.192V94.112L163.081 98.336C160.862 99.1893 159.284 100.341 158.345 101.792C157.492 103.243 157.065 105.547 157.065 108.704V115.872C157.065 118.176 157.918 120.139 159.625 121.76C161.332 123.381 163.38 124.192 165.769 124.192H174.345ZM198.055 65.44H205.991L207.143 69.152L212.391 67.616C215.975 66.5067 218.791 65.7387 220.839 65.312C222.972 64.8 224.978 64.544 226.855 64.544C229.927 64.544 232.188 65.6107 233.639 67.744C235.09 69.8773 235.815 72.6507 235.815 76.064V132H225.575V79.392C225.575 76.9173 225.404 75.2107 225.063 74.272C224.722 73.248 223.868 72.736 222.503 72.736C221.82 72.736 217.084 74.1013 208.295 76.832V132H198.055V65.44ZM250.055 65.44H257.991L259.143 69.152L264.391 67.616C267.975 66.5067 270.791 65.7387 272.839 65.312C274.972 64.8 276.978 64.544 278.855 64.544C281.927 64.544 284.188 65.6107 285.639 67.744C287.09 69.8773 287.815 72.6507 287.815 76.064V132H277.575V79.392C277.575 76.9173 277.404 75.2107 277.063 74.272C276.722 73.248 275.868 72.736 274.503 72.736C273.82 72.736 269.084 74.1013 260.295 76.832V132H250.055V65.44ZM315.367 132C310.674 132 306.919 130.592 304.103 127.776C301.372 124.96 300.007 121.163 300.007 116.384V82.336C300.007 76.7893 301.543 72.4373 304.615 69.28C307.687 66.1227 312.252 64.544 318.311 64.544C324.37 64.544 328.892 66.1227 331.879 69.28C334.951 72.4373 336.487 76.7893 336.487 82.336V88.224C336.487 91.808 335.463 94.5387 333.415 96.416C331.367 98.208 328.679 99.5733 325.351 100.512L310.247 104.736V117.28C310.247 119.328 310.844 121.035 312.039 122.4C313.319 123.68 314.94 124.32 316.903 124.32H330.727V132H315.367ZM318.055 94.496C320.871 93.728 322.748 93.1733 323.687 92.832C324.711 92.4053 325.394 91.808 325.735 91.04C326.076 90.272 326.247 88.992 326.247 87.2V80.16C326.247 77.4293 325.522 75.424 324.071 74.144C322.706 72.864 320.786 72.224 318.311 72.224C315.922 72.224 313.959 72.9067 312.423 74.272C310.972 75.6373 310.247 77.6 310.247 80.16V96.672L318.055 94.496ZM346.68 65.44H354.616L355.768 70.176L358.968 68.64C361.699 67.2747 363.96 66.2507 365.752 65.568C367.629 64.8853 369.507 64.544 371.384 64.544V72.096C370.275 72.096 368.781 72.4373 366.904 73.12C365.027 73.7173 361.699 75.168 356.92 77.472V132H346.68V65.44Z" fill="white"/>
<circle cx="205" cy="184" r="17" fill="#21759B"/>
<path d="M195.752 175.2H199.832C201.32 175.2 202.432 175.544 203.168 176.232C203.904 176.904 204.272 177.968 204.272 179.424C204.272 180.224 204.12 180.96 203.816 181.632C203.528 182.288 203.16 182.768 202.712 183.072C203.336 183.408 203.848 183.912 204.248 184.584C204.664 185.256 204.872 186.024 204.872 186.888C204.872 188.36 204.504 189.584 203.768 190.56C203.048 191.52 201.616 192 199.472 192H195.752V175.2ZM199.376 182.232C200.336 182.232 201.08 181.992 201.608 181.512C202.136 181.016 202.4 180.304 202.4 179.376C202.4 178.464 202.144 177.808 201.632 177.408C201.12 176.992 200.368 176.784 199.376 176.784H197.864V182.232H199.376ZM199.352 190.416C200.52 190.416 201.392 190.144 201.968 189.6C202.56 189.04 202.856 188.16 202.856 186.96C202.856 185.888 202.512 185.104 201.824 184.608C201.136 184.112 200.32 183.864 199.376 183.864H197.864V190.416H199.352ZM207.04 194.4H207.784C208.216 194.4 208.608 194.192 208.96 193.776C209.312 193.376 209.488 192.776 209.488 191.976L206.152 179.52H208.144L210.232 189.648L211.912 179.52H213.808L210.88 193.44C210.544 195.04 209.616 195.84 208.096 195.84H207.04V194.4Z" fill="white"/>
<path d="M31.22 34H56C73.08 34 81.62 42.68 81.62 60.04C81.62 69.0933 79.1467 76.1867 74.2 81.32C69.3467 86.36 62.3933 88.88 53.34 88.88H43.54V132H31.22V34ZM52.5 79.64C57.82 79.64 61.9267 77.82 64.82 74.18C67.8067 70.54 69.3 65.8267 69.3 60.04C69.3 54.5333 67.8533 50.38 64.96 47.58C62.16 44.6867 58.0067 43.24 52.5 43.24H43.54V79.64H52.5Z" fill="white"/>
<path d="M359.121 201.6C357.227 201.6 355.7 201.398 354.541 200.994C353.382 200.584 352.5 200.024 351.895 199.314C351.289 198.598 350.882 197.775 350.674 196.844H356.914C357.376 197.508 358.112 197.84 359.121 197.84C360.13 197.84 360.866 197.508 361.328 196.844C361.367 196.779 361.387 196.72 361.387 196.668C361.387 196.492 361.152 196.362 360.684 196.277C360.221 196.186 359.528 196.118 358.604 196.072C357.438 196.02 356.214 195.896 354.932 195.701C352.074 195.258 350.645 194.109 350.645 192.254C350.645 192.098 350.654 191.932 350.674 191.756C350.882 190.825 351.289 190.005 351.895 189.295C352.5 188.579 353.382 188.019 354.541 187.615C355.7 187.205 357.227 187 359.121 187C361.016 187 362.542 187.205 363.701 187.615C364.86 188.019 365.742 188.579 366.348 189.295C366.953 190.005 367.36 190.825 367.568 191.756H361.328C360.866 191.092 360.13 190.76 359.121 190.76C358.112 190.76 357.376 191.092 356.914 191.756C356.882 191.808 356.865 191.857 356.865 191.902C356.865 192.059 357.087 192.176 357.529 192.254C357.979 192.326 358.636 192.387 359.502 192.439C360.374 192.492 361.302 192.576 362.285 192.693C363.268 192.811 364.186 193.016 365.039 193.309C365.898 193.595 366.569 194.021 367.051 194.588C367.428 195.024 367.617 195.577 367.617 196.248C367.617 196.437 367.601 196.635 367.568 196.844C367.36 197.775 366.953 198.598 366.348 199.314C365.742 200.024 364.86 200.584 363.701 200.994C362.542 201.398 361.016 201.6 359.121 201.6Z" fill="white"/>
<path d="M339.99 201.6C336.572 201.6 334.167 200.89 332.773 199.471C331.602 198.279 331.016 196.557 331.016 194.305V187.293H336.895V194.305C336.895 195.281 337.061 196.053 337.393 196.619C337.868 197.433 338.734 197.84 339.99 197.84C341.26 197.84 342.129 197.433 342.598 196.619C342.93 196.033 343.096 195.262 343.096 194.305V187.293H348.975V194.383C348.975 196.583 348.392 198.279 347.227 199.471C345.827 200.89 343.415 201.6 339.99 201.6Z" fill="white"/>
<path d="M319.756 201.6C316.292 201.6 313.743 200.887 312.109 199.461C310.664 198.204 309.941 196.486 309.941 194.305C309.941 192.124 310.664 190.402 312.109 189.139C313.743 187.719 316.292 187.01 319.756 187.01C321.787 187.01 323.467 187.244 324.795 187.713C326.123 188.175 327.155 188.81 327.891 189.617C328.626 190.424 329.115 191.349 329.355 192.391H323.174C322.555 191.303 321.416 190.76 319.756 190.76C318.337 190.76 317.292 191.17 316.621 191.99C316.087 192.641 315.82 193.413 315.82 194.305C315.82 195.197 316.087 195.968 316.621 196.619C317.292 197.439 318.337 197.85 319.756 197.85C321.416 197.85 322.555 197.303 323.174 196.209H329.355C329.115 197.257 328.626 198.185 327.891 198.992C327.155 199.799 326.123 200.438 324.795 200.906C323.467 201.368 321.787 201.6 319.756 201.6Z" fill="white"/>
<path d="M308.369 201.297H302.812C302.559 200.945 302.38 200.496 302.275 199.949C302.184 199.526 302.048 199.113 301.865 198.709C301.683 198.299 301.367 197.96 300.918 197.693C300.475 197.42 299.814 197.273 298.936 197.254H295.117V201.297H289.238V187.283H298.799C301.084 187.283 302.926 187.456 304.326 187.801C305.732 188.139 306.758 188.676 307.402 189.412C308.047 190.141 308.369 191.095 308.369 192.273C308.369 193.257 308.145 194.083 307.695 194.754C307.253 195.424 306.549 195.955 305.586 196.346C306.517 196.73 307.119 197.192 307.393 197.732C307.673 198.266 307.845 198.855 307.91 199.5C307.975 200.073 308.128 200.672 308.369 201.297ZM295.117 193.797L298.477 193.787C299.414 193.787 300.153 193.745 300.693 193.66C301.234 193.576 301.631 193.462 301.885 193.318C302.145 193.169 302.311 193.006 302.383 192.83C302.454 192.648 302.49 192.462 302.49 192.273C302.49 192.085 302.454 191.899 302.383 191.717C302.311 191.535 302.145 191.372 301.885 191.229C301.631 191.079 301.234 190.962 300.693 190.877C300.153 190.792 299.414 190.75 298.477 190.75H295.117V193.797Z" fill="white"/>
<path d="M287.52 201.297H281.562L280.244 199.002H271.406L270.088 201.297H264.131L273.096 187.293H278.555L287.52 201.297ZM278.262 195.535L275.83 191.287L273.389 195.535H278.262Z" fill="white"/>
<path d="M262.422 201.297H256.543V192.361L251.289 201.297H246.904L241.66 192.361V201.297H235.781V187.283H242.764L249.102 197.293L255.43 187.283H262.422V201.297Z" fill="white"/>
<path d="M285.078 181.297H279.199V174.656L271.553 167.283H278.066L282.139 171.473L286.201 167.283H292.715L285.078 174.656V181.297Z" fill="white"/>
<path d="M263.35 181.6C259.886 181.6 257.337 180.887 255.703 179.461C254.258 178.198 253.535 176.476 253.535 174.295C253.535 172.12 254.258 170.402 255.703 169.139C257.337 167.713 259.886 167 263.35 167C266.813 167 269.362 167.713 270.996 169.139C272.441 170.402 273.164 172.12 273.164 174.295C273.164 176.476 272.441 178.198 270.996 179.461C269.362 180.887 266.813 181.6 263.35 181.6ZM263.35 177.84C264.769 177.84 265.811 177.433 266.475 176.619C267.008 175.962 267.275 175.187 267.275 174.295C267.275 173.403 267.008 172.632 266.475 171.98C265.811 171.16 264.769 170.75 263.35 170.75C261.93 170.75 260.885 171.16 260.215 171.98C259.681 172.632 259.414 173.403 259.414 174.295C259.414 175.187 259.681 175.962 260.215 176.619C260.885 177.433 261.93 177.84 263.35 177.84Z" fill="white"/>
<path d="M243.477 181.6C241.582 181.6 240.055 181.398 238.896 180.994C237.738 180.584 236.855 180.024 236.25 179.314C235.645 178.598 235.238 177.775 235.029 176.844H241.27C241.732 177.508 242.467 177.84 243.477 177.84C244.486 177.84 245.221 177.508 245.684 176.844C245.723 176.779 245.742 176.72 245.742 176.668C245.742 176.492 245.508 176.362 245.039 176.277C244.577 176.186 243.883 176.118 242.959 176.072C241.794 176.02 240.57 175.896 239.287 175.701C236.429 175.258 235 174.109 235 172.254C235 172.098 235.01 171.932 235.029 171.756C235.238 170.825 235.645 170.005 236.25 169.295C236.855 168.579 237.738 168.019 238.896 167.615C240.055 167.205 241.582 167 243.477 167C245.371 167 246.898 167.205 248.057 167.615C249.215 168.019 250.098 168.579 250.703 169.295C251.309 170.005 251.715 170.825 251.924 171.756H245.684C245.221 171.092 244.486 170.76 243.477 170.76C242.467 170.76 241.732 171.092 241.27 171.756C241.237 171.808 241.221 171.857 241.221 171.902C241.221 172.059 241.442 172.176 241.885 172.254C242.334 172.326 242.992 172.387 243.857 172.439C244.73 172.492 245.658 172.576 246.641 172.693C247.624 172.811 248.542 173.016 249.395 173.309C250.254 173.595 250.924 174.021 251.406 174.588C251.784 175.024 251.973 175.577 251.973 176.248C251.973 176.437 251.956 176.635 251.924 176.844C251.715 177.775 251.309 178.598 250.703 179.314C250.098 180.024 249.215 180.584 248.057 180.994C246.898 181.398 245.371 181.6 243.477 181.6Z" fill="white"/>
</svg>
